<svg width="41" height="44" viewBox="0 0 41 44" fill="none" xmlns="http://www.w3.org/2000/svg">
<path d="M19.3296 35.3921C28.055 35.3921 35.1282 34.8578 35.1282 34.1986C35.1282 33.5395 28.055 33.0051 19.3296 33.0051C10.6043 33.0051 3.53101 33.5395 3.53101 34.1986C3.53101 34.8578 10.6043 35.3921 19.3296 35.3921Z" fill="#E5E5E5"/>
<path d="M20.036 39.9519C30.6109 39.9519 39.1836 38.7285 39.1836 37.2193C39.1836 35.7102 30.6109 34.4868 20.036 34.4868C9.46109 34.4868 0.888428 35.7102 0.888428 37.2193C0.888428 38.7285 9.46109 39.9519 20.036 39.9519Z" fill="#FCFCFD"/>
<path d="M34.0349 26.532C34.0349 26.532 35.5829 26.4079 35.5628 28.4433C35.5447 30.2579 34.3289 30.3564 34.0651 30.3564C34.0329 30.3564 34.0148 30.3551 34.0148 30.3551H22.2141V29.7145H33.9947C33.9947 29.7145 34.8282 29.5288 34.8592 28.5159C34.8994 27.1933 33.9143 27.1933 33.9143 27.1933H22.2141V26.532H34.0349Z" fill="#3E89FC"/>
<path d="M35.4983 33.9534C35.5204 33.9534 35.5385 33.9732 35.5385 33.9974C35.5385 34.0216 35.5204 34.0414 35.4983 34.0414V33.9534ZM35.4983 34.4079C35.5204 34.4079 35.5385 34.4277 35.5385 34.4519C35.5385 34.4761 35.5204 34.4959 35.4983 34.4959V34.4079ZM35.4983 34.9214C35.5204 34.9214 35.5385 34.9412 35.5385 34.9654C35.5385 34.9896 35.5204 35.0094 35.4983 35.0094V34.9214Z" fill="black"/>
<path d="M35.498 35.0094V35.6452H22.7235C22.7235 35.6452 21.7955 35.4744 21.7613 34.5438C21.7167 33.3281 22.8127 33.3281 22.8127 33.3281H35.498V33.9534H22.6499C22.6278 33.9534 22.6097 33.9732 22.6097 33.9974C22.6097 34.0216 22.6278 34.0414 22.6499 34.0414H35.498V34.4079H23.4138C23.3917 34.4079 23.3736 34.4277 23.3736 34.4519C23.3736 34.4761 23.3917 34.4959 23.4138 34.4959H35.498V34.9214H25.3438C25.3217 34.9214 25.3036 34.9412 25.3036 34.9654C25.3036 34.9896 25.3217 35.0094 25.3438 35.0094H35.498Z" fill="#E5E5E5"/>
<path d="M35.4982 34.9654V35.0094H25.3439C25.3218 35.0094 25.3037 34.9896 25.3037 34.9654C25.3037 34.9412 25.3218 34.9214 25.3439 34.9214H35.4982V34.9654ZM35.4982 34.4519V34.4959H23.414C23.3919 34.4959 23.3738 34.4761 23.3738 34.4519C23.3738 34.4277 23.3919 34.4079 23.414 34.4079H35.4982V34.4519ZM35.4982 34.0414H22.6501C22.628 34.0414 22.6099 34.0216 22.6099 33.9974C22.6099 33.9732 22.628 33.9534 22.6501 33.9534H35.4982V34.0414Z" fill="black"/>
<path d="M33.9142 27.1934C33.9142 27.1934 34.8993 27.1934 34.8591 28.516C34.8281 29.5289 33.9946 29.7146 33.9946 29.7146H22.5164V29.0986H33.4651C33.4872 29.0986 33.5053 29.0788 33.5053 29.0546C33.5053 29.0304 33.4872 29.0106 33.4651 29.0106H22.5164V28.4874H32.2456C32.2677 28.4874 32.2858 28.4676 32.2858 28.4434C32.2858 28.4192 32.2677 28.3994 32.2456 28.3994H22.5164V27.8375H32.6075C32.6296 27.8375 32.6477 27.8177 32.6477 27.7935C32.6477 27.7693 32.6296 27.7495 32.6075 27.7495H22.5164V27.1934H33.9142Z" fill="#E5E5E5"/>
<path d="M34.1959 30.3562C34.1959 30.3562 34.5578 31.5534 34.1959 32.6693L30.5974 32.6922V30.3562H34.1959Z" fill="#A9D9FF"/>
<path d="M33.4651 29.0103C33.4872 29.0103 33.5053 29.0301 33.5053 29.0543C33.5053 29.0785 33.4872 29.0983 33.4651 29.0983H22.5164V29.0103H33.4651ZM32.6075 27.7493C32.6296 27.7493 32.6477 27.7691 32.6477 27.7933C32.6477 27.8175 32.6296 27.8373 32.6075 27.8373H22.5164V27.7493H32.6075ZM32.2456 28.3991C32.2677 28.3991 32.2858 28.4189 32.2858 28.4431C32.2858 28.4673 32.2677 28.4871 32.2456 28.4871H22.5164V28.3991H32.2456Z" fill="black"/>
<path d="M30.5969 30.3562V32.6922L26.1203 32.7203H24.7537V30.3562H30.5969Z" fill="white"/>
<path d="M30.095 26.5302V26.5319H22.2144V27.0159H20.8474V20.6799H30.095V26.5302ZM27.9037 24.1265V22.7919H26.2685V24.1265H27.9037ZM24.4057 24.9088V22.3225H21.6918V24.9088H24.4057Z" fill="#A9D9FF"/>
<path d="M26.2681 22.792H27.9033V24.1265H26.2681V22.792Z" fill="white"/>
<path d="M24.7544 32.719V32.7203H22.6785C22.6785 32.7203 22.5293 32.7106 22.3195 32.7445L21.1088 32.752C21.1088 32.752 20.747 31.5948 21.1088 30.3562H24.7544V32.719Z" fill="#A9D9FF"/>
<path d="M21.6919 22.3228H24.4059V24.9091H21.6919V22.3228Z" fill="white"/>
<path d="M22.5165 29.0543V29.0983C22.4944 29.0983 22.4763 29.0785 22.4763 29.0543C22.4763 29.0301 22.4944 29.0103 22.5165 29.0103V29.0543ZM22.5165 28.4431V28.4871C22.4944 28.4871 22.4763 28.4673 22.4763 28.4431C22.4763 28.4189 22.4944 28.3991 22.5165 28.3991V28.4431ZM22.5165 27.7933V27.8373C22.4944 27.8373 22.4763 27.8175 22.4763 27.7933C22.4763 27.7691 22.4944 27.7493 22.5165 27.7493V27.7933Z" fill="black"/>
<path d="M21.7612 34.5441C21.7954 35.4747 22.7234 35.6454 22.7234 35.6454H35.8344V36.2341H22.7009C22.7009 36.2341 21.0005 36.3481 20.978 34.4776C20.9623 33.1572 21.8159 32.8254 22.3193 32.7449L26.1209 32.7207H35.8344V33.3283H22.8126C22.8126 33.3283 21.7166 33.3283 21.7612 34.5441Z" fill="#295FC5"/>
<path d="M15.0094 18.3921V24.0096H6.79517V18.3921H15.0094ZM13.4679 21.0761V19.8613H11.5126V21.0761H13.4679ZM10.1725 21.6626V20.4896H9.34147V19.6241H7.65278V20.6801H8.49712V21.6626H10.1725Z" fill="#CFE0FA"/>
<path d="M11.5127 19.8611H13.468V21.0759H11.5127V19.8611Z" fill="white"/>
<path d="M10.9018 31.0785L10.5471 33.9975H6.79464L6.44604 31.0785H7.2333C7.23772 31.0891 7.24013 31.0953 7.24013 31.0957C7.24369 31.1051 7.25014 31.1129 7.25836 31.1177C7.26658 31.1225 7.27607 31.124 7.28519 31.1219C7.29432 31.1199 7.30251 31.1145 7.30838 31.1065C7.31424 31.0986 7.3174 31.0887 7.31733 31.0785H8.45639V31.0799C8.45679 31.1036 8.47488 31.1225 8.4966 31.1225H8.4978C8.51951 31.1221 8.5364 31.1027 8.5368 31.0785H9.46156V31.079C9.46167 31.0906 9.46595 31.1017 9.47348 31.1098C9.48101 31.118 9.49117 31.1225 9.50177 31.1225H9.50217C9.52428 31.1221 9.54238 31.1023 9.54198 31.0785H10.9018ZM10.172 20.4895V21.6625H8.4966V20.68H9.34094V20.4895H10.172Z" fill="#A9D9FF"/>
<path d="M10.0046 29.1696C9.99975 29.1793 9.99492 29.1885 9.9901 29.1982C9.98246 29.1824 9.97563 29.1661 9.96919 29.1484C9.96517 29.137 9.96155 29.1252 9.95793 29.1132L9.94507 29.1124C9.94507 29.1101 9.94547 29.1079 9.94547 29.1053C10.2559 28.4999 10.6961 28.0449 11.2538 27.7536C11.2586 27.7511 11.2637 27.7496 11.269 27.7493C11.2742 27.749 11.2795 27.7499 11.2845 27.7518C11.2895 27.7537 11.294 27.7567 11.2979 27.7606C11.3019 27.7644 11.305 27.7691 11.3073 27.7743C11.3169 27.7963 11.3085 27.8223 11.2884 27.8328C10.7392 28.1198 10.3073 28.5699 10.0046 29.1696Z" fill="black"/>
<path d="M9.9458 29.1057C9.95223 28.9288 9.85172 28.7216 9.83724 28.5421C9.81593 28.279 9.82397 27.9248 9.91404 27.6793C10.0725 27.248 10.4882 26.8595 10.9224 26.8547C11.0599 26.8534 11.2336 26.8895 11.3655 26.8556C11.5806 26.8001 11.6059 26.5886 11.6626 26.4033C11.7969 25.9624 12.4519 25.9563 12.6662 26.3158C12.8162 26.5674 12.8942 26.9137 12.8234 27.2107C12.7599 27.4774 12.517 27.8734 12.3072 28.0282C12.0358 28.2284 11.6823 28.144 11.4218 28.3794C11.3028 28.4867 11.232 28.7138 11.2578 28.8818C11.2887 29.0807 11.4306 29.2219 11.4459 29.4358C11.4773 29.8859 10.988 29.9273 10.6788 29.8428C10.495 29.7926 10.3973 29.6567 10.2667 29.5238C10.1533 29.4085 10.0523 29.3293 9.99043 29.1986C9.99526 29.1889 10.0001 29.1797 10.0049 29.17C10.3077 28.5703 10.7395 28.1202 11.2887 27.8333C11.3088 27.8228 11.3173 27.7968 11.3076 27.7748C11.3054 27.7696 11.3022 27.7649 11.2983 27.761C11.2944 27.7572 11.2898 27.7542 11.2848 27.7522C11.2798 27.7503 11.2746 27.7495 11.2693 27.7498C11.264 27.7501 11.2589 27.7516 11.2541 27.7541C10.6965 28.0453 10.2562 28.5003 9.9458 29.1057Z" fill="#A9D9FF"/>
<path d="M9.46216 31.0784C9.46216 31.0608 9.45814 30.0704 9.93419 29.1275C9.93781 29.12 9.94183 29.1125 9.94585 29.1055C9.94585 29.1081 9.94545 29.1103 9.94545 29.1125L9.95831 29.1134C9.96193 29.1253 9.96555 29.1371 9.96957 29.1486C9.976 29.1662 9.98284 29.1825 9.99048 29.1983C9.53735 30.1158 9.54257 31.0683 9.54257 31.078V31.0785L9.46216 31.0784Z" fill="black"/>
<path d="M9.50237 31.0786H9.54257C9.54297 31.1024 9.52488 31.1222 9.50277 31.1226H9.50237C9.49177 31.1226 9.4816 31.118 9.47408 31.1099C9.46655 31.1017 9.46226 31.0906 9.46216 31.0791V31.0786H9.50237Z" fill="black"/>
<path d="M9.28782 27.9075C9.55037 28.1156 9.58173 28.5336 9.41165 28.8346C9.22389 29.1668 8.75588 29.5764 8.37311 29.4541C8.37271 29.4496 8.3719 29.4453 8.3711 29.4409C8.1773 28.2353 7.7499 26.6464 6.81791 25.9239C6.79981 25.9103 6.77448 25.9147 6.76162 25.9345C6.74875 25.9543 6.75317 25.982 6.77127 25.9961C7.67833 26.6988 8.09809 28.2572 8.29069 29.4452C7.80941 29.4118 7.29557 29.2736 6.84806 29.095C6.56259 28.981 6.20194 28.7285 6.23129 28.3474C6.24777 28.1336 6.39332 27.9994 6.54008 27.8815C6.65306 27.7904 6.77328 27.6879 6.72784 27.511C6.68161 27.331 6.48017 27.317 6.33824 27.251C6.1368 27.1572 5.92934 27.0398 5.79223 26.8514C5.44042 26.367 5.48706 25.7634 5.95024 25.399C6.35915 25.0778 6.8549 25.0351 7.31728 25.2256C7.74267 25.4016 8.28345 25.8126 8.28224 26.3446C8.28144 26.7485 8.12141 27.0631 8.43262 27.3826C8.6823 27.6386 9.01602 27.6919 9.28782 27.9075Z" fill="#3E89FC"/>
<path d="M9.34079 20.4895V20.68H7.6521V19.624H9.34079V20.4895Z" fill="white"/>
<path d="M8.49694 31.0783H8.53715C8.53675 31.1025 8.51986 31.1219 8.49815 31.1223H8.49694C8.47523 31.1223 8.45714 31.1034 8.45674 31.0797V31.0783H8.49694ZM8.45674 31.0783C8.45593 31.0423 8.43462 30.3374 8.29269 29.4556C8.29229 29.4521 8.29149 29.4486 8.29108 29.4451C8.30475 29.4464 8.31842 29.4473 8.33209 29.4481C8.34255 29.4494 8.3526 29.4499 8.36305 29.4503C8.36667 29.4517 8.36989 29.4525 8.37351 29.4539C8.51825 30.3549 8.53715 31.0699 8.53715 31.077V31.0783H8.45674ZM7.27747 31.0783H7.31767C7.31769 31.0841 7.31665 31.0899 7.31464 31.0952C7.31262 31.1005 7.30966 31.1054 7.30592 31.1095C7.30219 31.1136 7.29775 31.1168 7.29287 31.119C7.28798 31.1212 7.28275 31.1224 7.27747 31.1223C7.26179 31.1223 7.24691 31.1122 7.24048 31.0955C7.24048 31.0951 7.23807 31.089 7.23364 31.0783H7.27747Z" fill="black"/>
<path d="M6.77176 25.9961C6.75367 25.982 6.74925 25.9543 6.76211 25.9345C6.77498 25.9147 6.80031 25.9103 6.8184 25.9239C7.7504 26.6464 8.1778 28.2352 8.3716 29.4409C8.3724 29.4453 8.3732 29.4496 8.37361 29.4541C8.36999 29.4527 8.36677 29.4519 8.36315 29.4505C8.3527 29.4501 8.34265 29.4496 8.33219 29.4483C8.31852 29.4474 8.30485 29.4466 8.29118 29.4453C8.09859 28.2572 7.67883 26.6987 6.77176 25.9961ZM6.56751 30.1404C6.57595 30.1294 6.58359 30.1171 6.59043 30.1044C6.59083 30.1048 6.59164 30.1053 6.59204 30.1057L6.60008 30.1123C6.60691 30.1184 6.61415 30.1241 6.62099 30.1307C7.11995 30.5624 7.30692 31.0415 7.31456 31.0613C7.31697 31.0671 7.31777 31.0728 7.31777 31.0785H7.23374C7.19554 30.9905 7.00134 30.5721 6.56992 30.1985C6.56791 30.1967 6.56631 30.195 6.5647 30.1941C6.56992 30.1906 6.57515 30.1871 6.58078 30.184L6.59485 30.1642C6.58601 30.1558 6.57676 30.1483 6.56751 30.1404Z" fill="black"/>
<path d="M6.54271 30.1751L6.55075 30.1817C6.55517 30.1857 6.55959 30.1892 6.56482 30.194C6.41847 30.2842 6.33082 30.3559 6.1519 30.3999C5.92714 30.4554 5.69836 30.4597 5.46798 30.4624C5.09204 30.4668 4.78004 30.3454 4.46321 30.143C4.17171 29.9569 3.8794 29.6537 3.82311 29.2612C3.75878 28.8146 4.1508 28.295 4.59508 28.408C4.71932 28.4397 4.74385 28.5858 4.80175 28.6879C4.86769 28.8045 4.9292 28.8353 5.05626 28.8493C5.38756 28.8854 5.67464 28.606 6.01801 28.7459C6.32036 28.8687 6.54793 29.1965 6.61106 29.5357C6.64001 29.691 6.67217 29.952 6.59055 30.1042C6.22427 29.7962 5.79003 29.5965 5.30072 29.5097C5.2786 29.5058 5.2581 29.5225 5.25448 29.5463C5.25086 29.5705 5.26614 29.5929 5.28785 29.5969C5.7647 29.681 6.18728 29.8755 6.54271 30.1751Z" fill="#295FC5"/>
<path d="M6.55022 30.182L6.54218 30.1754C6.18675 29.8757 5.76417 29.6813 5.28732 29.5972C5.26561 29.5933 5.25033 29.5708 5.25395 29.5466C5.25757 29.5229 5.27807 29.5061 5.30019 29.5101C5.78951 29.5968 6.22374 29.7966 6.59002 30.1046C6.58319 30.1173 6.57555 30.1296 6.56711 30.1406C6.57635 30.1486 6.5856 30.1561 6.59445 30.1644L6.58037 30.1842C6.57475 30.1873 6.56952 30.1908 6.56429 30.1943C6.55907 30.1895 6.55464 30.1859 6.55022 30.182Z" fill="black"/>
<path d="M31.1895 12.5398L31.0286 13.3318L28.2946 12.5398H31.1895ZM29.7529 8.35976L28.2853 9.19576L29.2302 8.01788L29.7529 8.35976ZM28.4059 16.9248L28.0039 17.4018L26.8982 15.3008L28.4059 16.9248ZM27.3807 5.25776L25.7925 7.34776L26.5564 4.90576L27.3807 5.25776Z" fill="#3E83EB"/>
<path d="M23.1309 15.0142V15.0195C23.1309 15.0437 23.149 15.0631 23.1711 15.0631C23.1916 15.0631 23.2089 15.0459 23.2109 15.0239C23.4228 15.0507 23.6189 15.0811 23.7995 15.1141C23.7991 15.1167 23.7987 15.1189 23.7987 15.1216C23.7987 15.1458 23.8167 15.1656 23.8389 15.1656C23.8586 15.1656 23.8751 15.1497 23.8783 15.1291V15.1286C24.5192 15.2501 24.9522 15.3957 25.1786 15.4837C25.3036 15.5325 25.3659 15.5638 25.3659 15.5638L25.1142 16.2031C25.0716 16.1895 25.029 16.1758 24.9864 16.1631C23.5096 15.7121 22.1361 15.6984 21.691 15.7081C21.5941 15.7103 21.541 15.7134 21.541 15.7134L21.4956 14.9214C21.5913 14.9214 21.685 14.9223 21.7767 14.924C22.2817 14.9333 22.7328 14.9671 23.1309 15.0142Z" fill="#A9D9FF"/>
<path d="M24.3826 12.0794C24.4453 11.8929 24.5044 11.7556 24.5591 11.6711C24.6427 11.5413 24.7951 11.4639 24.9672 11.4639C25.1171 11.4639 25.2414 11.5241 25.2623 11.6082C25.2828 11.6896 25.2024 11.7965 25.0416 11.9008C24.8646 12.0156 24.6431 12.0759 24.3826 12.0794Z" fill="#FFC962"/>
<path d="M24.5593 11.6711C24.5046 11.7556 24.4455 11.8929 24.3827 12.0795C24.6433 12.0759 24.8648 12.0157 25.0418 11.9008C25.2026 11.7965 25.283 11.6896 25.2625 11.6082C25.2416 11.5242 25.1174 11.4639 24.9673 11.4639C24.7953 11.4639 24.6429 11.5413 24.5593 11.6711ZM24.339 12.0821C24.3997 11.8991 24.4632 11.7437 24.5263 11.6456C24.8214 11.1871 25.7394 11.4987 25.0623 11.9387C24.862 12.0685 24.6192 12.1226 24.3659 12.1239C24.3659 12.1177 24.3651 12.1116 24.3627 12.1063C24.3617 12.1037 24.3605 12.1012 24.3591 12.0988C24.3577 12.0963 24.3559 12.0941 24.3538 12.0922C24.3521 12.0904 24.3502 12.0887 24.3482 12.0874C24.3467 12.0861 24.3451 12.0849 24.3434 12.0839C24.3418 12.0834 24.3406 12.0825 24.339 12.0821ZM24.3623 12.1415C24.3595 12.1503 24.3566 12.1591 24.3542 12.1679C24.3446 12.1679 24.3353 12.1675 24.3257 12.1675C24.3422 12.1675 24.3562 12.1569 24.3623 12.1415Z" fill="black"/>
<path d="M24.3589 12.0986C24.3607 12.1017 24.362 12.1048 24.3629 12.1074C24.362 12.1042 24.3607 12.1013 24.3589 12.0986Z" fill="black"/>
<path d="M24.3598 12.0988C24.3615 12.101 24.3627 12.1037 24.3635 12.1064C24.366 12.1117 24.3668 12.1179 24.3668 12.124C24.3532 12.124 24.3393 12.124 24.3257 12.1236C24.3302 12.1095 24.3348 12.0957 24.3393 12.082C24.3409 12.0825 24.3421 12.0834 24.3438 12.0838C24.3454 12.0847 24.3475 12.086 24.3487 12.0873C24.3508 12.0887 24.3528 12.0904 24.3545 12.0922C24.3565 12.094 24.3586 12.0966 24.3598 12.0988Z" fill="black"/>
<path d="M24.2981 12.0782C24.3673 11.8665 24.4312 11.7165 24.4935 11.6197C24.592 11.4666 24.7693 11.3755 24.9675 11.3755C25.1593 11.3755 25.3089 11.4591 25.3403 11.5845C25.3624 11.6725 25.3354 11.812 25.0829 11.9761C24.8876 12.1028 24.6431 12.1675 24.3568 12.1675H24.3543C24.3568 12.1587 24.3596 12.1499 24.3624 12.1411C24.3648 12.1358 24.366 12.1296 24.366 12.1235C24.6193 12.1222 24.8622 12.068 25.0624 11.9382C25.7395 11.4982 24.8215 11.1867 24.5264 11.6452C24.4633 11.7433 24.3998 11.8986 24.3391 12.0817C24.336 12.0802 24.3327 12.0795 24.3294 12.0795C24.329 12.079 24.3286 12.079 24.3283 12.079H24.3254C24.3162 12.079 24.3073 12.0786 24.2981 12.0782Z" fill="black"/>
<path d="M24.3568 12.1679C24.6431 12.1679 24.8875 12.1032 25.0829 11.9765C25.3354 11.8124 25.3624 11.6729 25.3402 11.5849C25.3089 11.4595 25.1593 11.3759 24.9675 11.3759C24.7693 11.3759 24.592 11.467 24.4935 11.6201C24.4311 11.7169 24.3672 11.8669 24.2981 12.0786C24.0009 12.0689 23.662 11.9866 23.3597 11.8489C23.3484 11.5013 23.3299 11.291 23.3046 11.206C23.2628 11.0688 23.1365 10.9794 22.9829 10.9794C22.8744 10.9794 22.7762 11.027 22.72 11.1057C22.6834 11.1572 22.6464 11.2474 22.6782 11.3838C22.7163 11.547 22.9463 11.7472 23.2813 11.9078C23.3009 12.5564 23.2929 13.4527 23.2905 13.67L23.1759 13.6551C23.1703 13.6543 23.1646 13.6548 23.1592 13.6567C23.1537 13.6585 23.1488 13.6615 23.1445 13.6656C23.1402 13.6697 23.1367 13.6748 23.1344 13.6805C23.132 13.6862 23.1308 13.6924 23.1308 13.6986V14.572C22.5269 14.389 21.9946 14.0555 21.5797 13.619C20.9758 12.9832 20.6211 12.13 20.6573 11.2078C20.7305 9.35716 22.352 7.93112 24.2796 8.0222C26.2067 8.11328 27.71 9.6876 27.6369 11.5378C27.5862 12.8195 26.7929 13.8975 25.6695 14.4088C25.171 14.6363 24.6072 14.7516 24.015 14.7234C23.9949 14.7225 23.9748 14.7212 23.9547 14.7199L24.1224 13.8249C24.1248 13.813 24.122 13.8003 24.1155 13.7902C24.1123 13.7853 24.1082 13.7812 24.1034 13.7781C24.0986 13.7751 24.0933 13.7732 24.0878 13.7726L23.9845 13.7594C24.0211 13.5587 24.173 12.7456 24.3544 12.1679H24.3568Z" fill="#FEC84B"/>
<path d="M24.3484 12.0873C24.3469 12.0858 24.3453 12.0847 24.3435 12.0837C24.3452 12.0846 24.3468 12.0859 24.3484 12.0873ZM24.3259 12.1233C24.3391 12.1238 24.3528 12.1238 24.3661 12.1238C24.3661 12.1299 24.3649 12.1361 24.3624 12.1414C24.3564 12.1568 24.3423 12.1673 24.3259 12.1673H24.3255C24.321 12.1673 24.317 12.1665 24.313 12.1647C24.317 12.1506 24.3214 12.137 24.3259 12.1233Z" fill="black"/>
<path d="M24.3254 12.0793H24.3283C24.3287 12.0793 24.3291 12.0793 24.3295 12.0798C24.3328 12.0798 24.3361 12.0805 24.3391 12.082C24.3347 12.0956 24.3303 12.1093 24.3259 12.1233C24.3126 12.1233 24.2993 12.1229 24.2856 12.122C24.2856 12.1176 24.2865 12.1132 24.2881 12.1088L24.2905 12.1022C24.2977 12.0881 24.3114 12.0793 24.3254 12.0793Z" fill="black"/>
<path d="M24.3249 12.0792C24.3108 12.0792 24.2972 12.088 24.2899 12.1021C24.2924 12.0942 24.2947 12.0858 24.2976 12.0784C24.3068 12.0788 24.3157 12.0792 24.3249 12.0792ZM24.3249 12.1672C24.3205 12.1672 24.3161 12.1672 24.3116 12.1668C24.312 12.1659 24.312 12.165 24.3125 12.1646C24.3165 12.1664 24.3205 12.1672 24.3249 12.1672ZM24.3253 12.1232C24.3209 12.1369 24.3165 12.1505 24.3125 12.1646C24.3042 12.1619 24.2971 12.1561 24.2924 12.1483C24.2873 12.1407 24.2847 12.1314 24.2851 12.1219C24.2988 12.1228 24.312 12.1232 24.3253 12.1232ZM24.2875 12.1087C24.2859 12.1131 24.2851 12.1175 24.2851 12.1219H24.2834C24.2847 12.1175 24.2863 12.1131 24.2875 12.1087Z" fill="black"/>
<path d="M24.2926 12.1485C24.2974 12.1564 24.3046 12.1621 24.3127 12.1648C24.3122 12.1652 24.3122 12.1661 24.3118 12.1669C24.2982 12.1669 24.2841 12.1665 24.27 12.1656C24.2744 12.1507 24.2789 12.1362 24.2837 12.1221H24.2853C24.2849 12.1315 24.2875 12.1408 24.2926 12.1485Z" fill="black"/>
<path d="M24.2701 12.1658C24.0883 12.7532 23.938 13.5619 23.9042 13.7489L23.3706 13.6803C23.3726 13.4836 23.381 12.6018 23.3625 11.9458C23.6597 12.076 23.9774 12.153 24.2701 12.1658ZM23.9544 14.72C23.9745 14.7213 23.9946 14.7226 24.0147 14.7235C24.607 14.7517 25.1707 14.6364 25.6692 14.4089V14.4094L25.1783 15.4838C24.9519 15.3958 24.5189 15.2502 23.878 15.1288L23.9544 14.72Z" fill="#FFC962"/>
<path d="M24.1222 13.8248L23.9545 14.7198L23.9143 14.7172L24.0828 13.816L23.977 13.8024C23.9779 13.7962 23.9806 13.7817 23.9843 13.7593L24.0876 13.7725C24.0989 13.7738 24.1089 13.7804 24.1153 13.7901C24.1218 13.8002 24.1246 13.813 24.1222 13.8248Z" fill="black"/>
<path d="M24.0348 13.8541L23.874 14.7134C23.6504 14.6949 23.4287 14.6551 23.2114 14.5946V13.748L23.322 13.7621L23.9372 13.8413L24.0348 13.8541Z" fill="#FFC962"/>
<path d="M24.0138 18.7108C24.1445 18.7328 24.1143 19.0738 23.7123 19.4588C23.3102 19.8438 22.5973 19.9767 22.3203 20.0972C22.1519 19.9472 21.9158 19.7628 21.7771 19.6564C21.7771 19.6564 22.2045 18.3918 22.3251 18.5128C22.4457 18.6338 22.4256 19.1508 22.4256 19.1508C22.4256 19.1508 23.8831 18.6888 24.0138 18.7108Z" fill="#FDA181"/>
<path d="M24.3543 12.1676C24.1729 12.7453 24.021 13.5585 23.9844 13.7591L23.9446 13.7538C23.9796 13.5602 24.1299 12.7524 24.3121 12.1667C24.3165 12.1672 24.3209 12.1672 24.3254 12.1672H24.3258C24.3354 12.1672 24.3446 12.1676 24.3543 12.1676ZM23.8738 14.7135L24.0346 13.8541L23.9369 13.8414V13.8409C23.9558 13.8409 23.9728 13.8264 23.9763 13.8053C23.9763 13.8049 23.9767 13.804 23.9771 13.8022L24.0829 13.8159L23.9145 14.717C23.9007 14.7161 23.8871 14.7148 23.8738 14.7135ZM23.9546 14.7196L23.8782 15.1284C23.8654 15.1257 23.8521 15.1235 23.8389 15.1209L23.9145 14.717L23.9546 14.7196Z" fill="black"/>
<path d="M23.9041 13.7489C23.9378 13.5619 24.0882 12.7532 24.2699 12.1658C24.284 12.1667 24.2981 12.1671 24.3117 12.1671C24.1296 12.7527 23.9792 13.5606 23.9443 13.7542L23.9041 13.7489ZM23.9841 13.7595C23.9804 13.7819 23.9777 13.7964 23.9768 13.8026L23.9366 13.7973C23.9366 13.7973 23.9394 13.7823 23.9443 13.7542L23.9841 13.7595Z" fill="black"/>
<path d="M23.8971 13.7886C23.8971 13.7873 23.8995 13.7736 23.904 13.7485L23.9442 13.7538C23.9393 13.782 23.9365 13.7969 23.9365 13.7969L23.8967 13.7917C23.8967 13.7908 23.8971 13.7895 23.8971 13.7886Z" fill="black"/>
<path d="M23.9291 13.8401C23.9191 13.8381 23.9102 13.8319 23.9042 13.8229C23.8982 13.8139 23.8956 13.8027 23.8969 13.7917L23.9367 13.797L23.9769 13.8023C23.9765 13.804 23.9761 13.8049 23.9761 13.8053C23.9744 13.8154 23.9695 13.8244 23.9623 13.8309C23.9551 13.8374 23.946 13.841 23.9367 13.841C23.9343 13.841 23.9319 13.8405 23.9291 13.8401ZM23.8736 14.7135C23.8869 14.7148 23.9006 14.7161 23.9143 14.717L23.8387 15.1209C23.8258 15.1187 23.8126 15.1161 23.7993 15.1139V15.1121L23.8736 14.7135ZM23.3706 13.6799L23.9042 13.7486C23.8998 13.7737 23.8974 13.7873 23.8974 13.7886C23.8974 13.7895 23.8969 13.7908 23.8969 13.7917L23.3699 13.7244C23.3703 13.7231 23.3703 13.7213 23.3703 13.7195C23.3702 13.7182 23.3702 13.7046 23.3706 13.6799Z" fill="black"/>
<path d="M23.2111 14.595C23.4242 14.6544 23.6458 14.6948 23.8737 14.7138L23.7993 15.1124V15.1142C23.6188 15.0812 23.4226 15.0508 23.2107 15.024C23.2111 15.0227 23.2111 15.0209 23.2111 15.0191L23.2111 14.595Z" fill="#FFC962"/>
<path d="M23.8389 15.1209C23.8522 15.1236 23.8654 15.1258 23.8782 15.1284V15.1288C23.875 15.1495 23.8585 15.1654 23.8389 15.1654C23.8167 15.1654 23.7987 15.1456 23.7987 15.1214C23.7987 15.1187 23.7991 15.1165 23.7995 15.1139C23.8128 15.1161 23.826 15.1187 23.8389 15.1209ZM23.3596 11.8486C23.662 11.9864 24.0009 12.0686 24.298 12.0783C24.2952 12.0858 24.2928 12.0942 24.2904 12.1021L24.288 12.1087C24.2868 12.1131 24.2852 12.1175 24.2839 12.1219C23.9651 12.11 23.6354 12.0194 23.3616 11.897C23.3612 11.8909 23.3612 11.8847 23.3608 11.8786V11.8772L23.3596 11.8486Z" fill="black"/>
<path d="M23.3612 11.8972C23.635 12.0195 23.9647 12.1102 24.2835 12.1221C24.2787 12.1361 24.2743 12.1507 24.2698 12.1656C23.9771 12.1529 23.6595 12.0759 23.3624 11.9456L23.3612 11.8972ZM23.37 13.7197C23.37 13.7215 23.37 13.7232 23.3696 13.7245L23.3298 13.7193C23.3298 13.7193 23.3302 13.7034 23.3302 13.6748L23.3704 13.6801C23.37 13.7047 23.37 13.7184 23.37 13.7197Z" fill="black"/>
<path d="M23.3302 13.6749C23.3327 13.4681 23.3411 12.5833 23.3218 11.9272C23.3354 11.9334 23.3492 11.9396 23.3624 11.9457C23.3809 12.6018 23.3724 13.4835 23.3704 13.6802L23.3302 13.6749Z" fill="black"/>
<path d="M23.3628 11.9454C23.3496 11.9393 23.3359 11.9331 23.3222 11.9269C23.3222 11.9252 23.3218 11.9239 23.3218 11.9225C23.3294 11.9221 23.3371 11.9195 23.3435 11.9146C23.3499 11.9098 23.3547 11.9032 23.3576 11.8953C23.3588 11.8961 23.36 11.8966 23.3616 11.897L23.3628 11.9454Z" fill="black"/>
<path d="M23.3574 11.8955C23.3594 11.8903 23.3606 11.8845 23.3606 11.8788C23.361 11.885 23.361 11.8911 23.3614 11.8973C23.36 11.897 23.3586 11.8964 23.3574 11.8955ZM23.3594 11.8489L23.3605 11.8775C23.3601 11.8595 23.3485 11.8445 23.3344 11.8379C23.3348 11.8379 23.3356 11.8379 23.336 11.8383C23.3437 11.8418 23.3517 11.8454 23.3594 11.8489ZM23.3204 11.8788C23.3324 11.8845 23.3449 11.8903 23.3574 11.8955C23.3546 11.9035 23.3498 11.9101 23.3433 11.9149C23.3368 11.9197 23.3292 11.9224 23.3216 11.9228L23.3204 11.8788ZM23.3304 13.6749C23.3304 13.7035 23.33 13.7193 23.33 13.7193L23.2898 13.7141C23.2898 13.707 23.2902 13.6921 23.2902 13.6701L23.3304 13.6749ZM23.9367 13.8416L23.3216 13.7625C23.324 13.7629 23.3268 13.7633 23.3296 13.7633H23.33C23.3505 13.7633 23.3674 13.7466 23.3698 13.7246L23.8969 13.7919C23.8941 13.8148 23.9082 13.8359 23.9291 13.8403C23.9319 13.8408 23.9343 13.8412 23.9367 13.8412V13.8416H23.9367ZM23.2902 13.6701C23.2927 13.4527 23.3007 12.5564 23.281 11.9079C23.2886 11.9118 23.2967 11.9153 23.3047 11.9193C23.3104 11.9219 23.3164 11.9246 23.322 11.9272C23.3413 12.5833 23.3329 13.4681 23.3304 13.6749L23.2902 13.6701Z" fill="black"/>
<path d="M23.3188 11.8346C23.324 11.8341 23.3297 11.8354 23.3345 11.8376C23.3486 11.8442 23.3602 11.8592 23.3606 11.8772V11.8786C23.3606 11.8843 23.3594 11.89 23.3574 11.8953C23.3449 11.89 23.3324 11.8843 23.3204 11.8786C23.32 11.8636 23.3196 11.8491 23.3188 11.8346ZM23.322 11.927C23.3163 11.9243 23.3103 11.9217 23.3047 11.919C23.3095 11.9212 23.3151 11.9226 23.3204 11.9226H23.3216C23.3216 11.9239 23.322 11.9252 23.322 11.927Z" fill="black"/>
<path d="M23.3202 11.8785C23.3077 11.8728 23.2957 11.8666 23.2832 11.8609C23.2862 11.8533 23.2912 11.8468 23.2974 11.8421C23.3037 11.8374 23.311 11.8348 23.3186 11.8345C23.3194 11.849 23.3198 11.8635 23.3202 11.8785Z" fill="black"/>
<path d="M23.3108 11.8359C23.3083 11.8364 23.3059 11.8373 23.3036 11.8386C23.306 11.8377 23.3084 11.8364 23.3108 11.8359ZM23.3048 11.9191C23.2977 11.9159 23.2917 11.9106 23.2873 11.9037C23.2829 11.8968 23.2805 11.8887 23.2803 11.8804C23.2803 11.8769 23.2803 11.8733 23.2811 11.8698C23.2815 11.8667 23.2823 11.8641 23.2835 11.8615V11.861C23.296 11.8667 23.3081 11.8729 23.3205 11.8786C23.3209 11.8931 23.3214 11.9077 23.3217 11.9226H23.3205C23.3153 11.9226 23.3096 11.9213 23.3048 11.9191ZM23.2899 13.7139L23.3301 13.7191L23.3699 13.7244C23.3675 13.7464 23.3506 13.7631 23.3301 13.7631H23.3297C23.3244 13.7631 23.3192 13.7619 23.3144 13.7596C23.3095 13.7574 23.3051 13.7541 23.3014 13.75C23.2977 13.7458 23.2948 13.7409 23.2928 13.7356C23.2908 13.7302 23.2899 13.7245 23.2899 13.7187V13.7139Z" fill="black"/>
<path d="M23.2803 11.8804C23.2807 11.8972 23.2901 11.9122 23.3054 11.9193C23.2971 11.9153 23.2889 11.9118 23.2811 11.9078C23.2807 11.8985 23.2807 11.8892 23.2803 11.8804Z" fill="black"/>
<path d="M23.2775 11.8101C22.992 11.6667 22.7854 11.4907 22.7556 11.3617C22.7367 11.2799 22.746 11.2121 22.783 11.1598C22.824 11.1021 22.8988 11.0674 22.9824 11.0674C23.072 11.0674 23.1903 11.1109 23.2277 11.2337C23.2429 11.2843 23.2634 11.426 23.2775 11.8101Z" fill="#FFC962"/>
<path d="M23.1707 13.6985L23.2897 13.7139V13.7187C23.2893 13.7398 23.3029 13.7579 23.3214 13.7623L23.2109 13.7482V14.5948C23.1972 14.5912 23.1839 14.5877 23.1707 14.5838V13.6985Z" fill="black"/>
<path d="M23.1708 15.0191V14.5839C23.1841 14.5879 23.1974 14.5914 23.211 14.5949V15.0191C23.211 15.0208 23.211 15.0226 23.2106 15.0239C23.1974 15.0221 23.1841 15.0208 23.1708 15.0191ZM23.1756 13.6551L23.2902 13.67C23.2902 13.692 23.2898 13.707 23.2898 13.714L23.1708 13.6986V14.5839L23.1306 14.572V13.6986C23.1306 13.6859 23.1354 13.674 23.1443 13.6656C23.1527 13.6573 23.164 13.6537 23.1756 13.6551Z" fill="black"/>
<path d="M23.1708 14.5839V15.0191C23.1576 15.0173 23.1439 15.016 23.1306 15.0142V14.572L23.1708 14.5839Z" fill="black"/>
<path d="M23.1708 15.019C23.1841 15.0208 23.1974 15.0221 23.2106 15.0238C23.2086 15.0458 23.1913 15.063 23.1708 15.063C23.1487 15.063 23.1306 15.0436 23.1306 15.0194V15.0142C23.1439 15.0159 23.1576 15.0172 23.1708 15.019Z" fill="black"/>
<path d="M23.1305 14.5719V15.0141C22.7325 14.9671 22.2814 14.9332 21.7764 14.9239L21.5793 13.6189C21.9943 14.0554 22.5266 14.3889 23.1305 14.5719Z" fill="#FFC962"/>
<path d="M23.0181 4.68628L22.9297 6.68828L22.5164 4.68628H23.0181Z" fill="#3E83EB"/>
<path d="M21.9261 16.4163C22.3229 16.4281 23.4544 16.4884 24.6151 16.7977L24.6067 16.8365L24.5062 17.4019C22.9301 17.0719 21.9329 17.0279 21.9329 17.0279L21.9253 16.4484L21.9261 16.4163Z" fill="#295FC5"/>
<path d="M23.2278 11.2336C23.1904 11.1109 23.0722 11.0673 22.9825 11.0673C22.8989 11.0673 22.8241 11.1021 22.7831 11.1597C22.7461 11.2121 22.7369 11.2798 22.7557 11.3617C22.7855 11.4906 22.9921 11.6666 23.2776 11.81C23.2636 11.4259 23.2431 11.2842 23.2278 11.2336ZM22.7168 11.3727C22.6231 10.9683 23.1723 10.912 23.266 11.22C23.2921 11.3062 23.3086 11.5412 23.3187 11.8347C23.3159 11.8347 23.3134 11.8351 23.3106 11.836C23.3082 11.8364 23.3058 11.8377 23.3034 11.8386C23.2944 11.8431 23.2872 11.8511 23.2833 11.8611C22.9753 11.7106 22.7517 11.5231 22.7168 11.3727Z" fill="black"/>
<path d="M23.2663 11.2199C23.1726 10.9119 22.6234 10.9682 22.7171 11.3726C22.752 11.5231 22.9756 11.7105 23.2836 11.861V11.8614C23.2824 11.8641 23.2816 11.8672 23.2812 11.8698C23.2803 11.8733 23.2803 11.8768 23.2803 11.8804C23.2807 11.8892 23.2807 11.8984 23.2812 11.9076C22.9463 11.747 22.7163 11.5468 22.6781 11.3836C22.6463 11.2472 22.6833 11.157 22.7199 11.1055C22.7761 11.0268 22.8743 10.9792 22.9828 10.9792C23.1364 10.9792 23.2627 11.0686 23.3045 11.2058C23.3298 11.2908 23.3483 11.5011 23.3596 11.8487C23.3519 11.8452 23.3439 11.8416 23.3363 11.8381C23.3358 11.8377 23.335 11.8377 23.3346 11.8377C23.3297 11.8354 23.3243 11.8343 23.3189 11.8346C23.3089 11.5411 23.2924 11.3062 23.2663 11.2199Z" fill="black"/>
<path d="M21.7768 19.6564C21.9155 19.7629 22.1515 19.9472 22.32 20.0973C22.4213 20.1875 22.4985 20.2649 22.5158 20.3058C22.5291 20.3375 22.4056 20.4634 22.2014 20.6411C21.8986 20.3014 21.2356 19.861 21.2356 19.861C21.4865 19.6898 21.6614 19.5688 21.6614 19.5688C21.6614 19.5688 21.7068 19.6027 21.7768 19.6564Z" fill="#A9D9FF"/>
<path d="M24.9688 16.2361L24.7577 16.8367C24.7103 16.8231 24.6629 16.8103 24.6154 16.798C23.4546 16.4887 22.3232 16.4284 21.9264 16.4165C21.8303 16.4139 21.7772 16.4139 21.7772 16.4139L21.692 15.7631L21.6912 15.7081C22.1362 15.6984 23.5097 15.7121 24.9865 16.1631L24.9688 16.2361Z" fill="#3E89FC"/>
<path d="M20.4096 6.56201L20.767 8.35985L19.7377 6.76001L20.4096 6.56201ZM20.2041 14.0579L18.7366 15.3009L18.4551 14.7275L20.2041 14.0579ZM19.4603 11.3725L17.1609 11.0232L17.3294 10.2299L19.4603 11.3725Z" fill="#3E83EB"/>
<path d="M19.5001 22.5941C19.1583 22.6711 18.1029 21.8901 18.1029 21.8901L18.0719 21.8796C18.0993 21.7801 18.1186 21.6939 18.123 21.6371C18.133 21.5082 18.01 21.136 17.887 20.802C18.2798 21.444 18.9203 22.3275 19.5845 22.5607C19.5487 22.5783 19.5202 22.5897 19.5001 22.5941Z" fill="#295FC5"/>
<path d="M17.261 38.0288C17.7769 38.1876 18.2404 38.0812 18.4133 38.0292L18.4346 38.247C18.4346 38.247 19.6107 38.5111 19.8419 38.5999C20.0731 38.6889 20.0329 39.171 20.0329 39.171L17.1882 38.984L17.261 38.0288Z" fill="#1E1950"/>
<path d="M16.9491 26.6211V26.6206C17.1248 26.592 17.2997 26.5555 17.4701 26.5097C18.9477 26.1137 19.0081 25.9597 19.0081 25.9597C19.0081 25.9597 19.045 30.6162 18.6832 33.1022C18.6832 33.1022 18.6261 37.5867 18.4854 38.0047C18.4854 38.0047 18.46 38.0148 18.4138 38.0289C18.2409 38.0809 17.7773 38.1874 17.2615 38.0285C17.2373 38.0214 17.2132 38.0135 17.1887 38.0047C17.1887 38.0047 17.202 33.8357 17.2623 33.2637C17.3226 32.6917 16.6021 28.2147 16.6021 28.2147L16.5771 28.2077C16.7935 27.2868 16.9491 26.6211 16.9491 26.6211Z" fill="#403882"/>
<path d="M16.8268 17.7869C16.8268 17.7869 17.9301 18.0064 17.3012 18.9938C17.0873 19.0061 16.7733 19.036 16.5357 19.0602C16.3447 19.08 16.2036 19.0959 16.2036 19.0959L16.0938 18.6229L16.0327 18.3589C16.0327 18.3589 16.7966 17.9849 16.8268 17.7869Z" fill="#1E1950"/>
<path d="M16.7631 19.9172V20.1518L16.0808 19.6792L16.7631 19.9172Z" fill="#295FC5"/>
<path d="M16.5357 19.0603L16.7632 19.9174L16.0809 19.6794L15.9221 19.6239L16.2036 19.0959C16.2036 19.0959 16.3447 19.0801 16.5357 19.0603Z" fill="#A9D9FF"/>
<path d="M15.8008 16.8357C15.8378 16.8269 15.8555 16.757 15.8398 16.68C15.8245 16.6025 15.7819 16.5471 15.7449 16.5559C15.7079 16.5647 15.6902 16.6347 15.7055 16.7117C15.7212 16.7891 15.7638 16.8445 15.8008 16.8357ZM16.2117 16.5709C16.2274 16.6483 16.27 16.7037 16.307 16.6949C16.344 16.6861 16.3617 16.6162 16.346 16.5387C16.3307 16.4617 16.2881 16.4059 16.2511 16.4151C16.2141 16.4239 16.1964 16.4934 16.2117 16.5709ZM16.1305 16.8375C16.1353 16.8595 16.2258 17.263 16.3042 17.402L16.4783 17.16C16.3291 17.0887 16.1422 16.852 16.1305 16.8375ZM14.5753 17.369C14.5954 16.995 14.9171 17.039 14.9171 17.039L14.9311 16.753C14.9311 16.753 15.2391 16.5357 15.4518 16.1973C15.4663 16.1929 15.4795 16.1889 15.492 16.1859C15.5354 16.1793 15.6323 16.1709 15.6934 16.1854C15.7152 16.1903 15.7365 16.1753 15.7413 16.1515C15.7434 16.1401 15.7414 16.1282 15.7356 16.1184C15.7298 16.1086 15.7207 16.1017 15.7103 16.0992C15.6444 16.0838 15.558 16.0895 15.5117 16.0948C15.6319 15.8669 15.6987 15.5941 15.6106 15.301C15.6106 15.301 16.1574 15.3116 16.3561 15.9232C16.2374 15.9474 16.149 15.9967 16.145 15.9989C16.1253 16.0103 16.1176 16.0367 16.1277 16.0583C16.1349 16.0732 16.149 16.082 16.1635 16.082C16.1699 16.082 16.1759 16.0803 16.182 16.0772C16.1828 16.0767 16.2664 16.0297 16.3758 16.0081C16.3778 16.0077 16.3794 16.0072 16.3814 16.0072C16.424 16.1489 16.4711 16.306 16.5181 16.4661C16.6829 17.0298 16.8498 17.6374 16.8269 17.787C16.7967 17.985 16.0328 18.359 16.0328 18.359C16.0328 18.359 15.8117 18.4404 15.5202 18.3093C15.5202 18.3093 15.6987 18.5764 16.0939 18.623L16.2037 19.096L15.9222 19.624L15.1683 19.371C15.49 18.524 15.0578 17.666 15.0578 17.666C15.0578 17.666 14.5552 17.743 14.5753 17.369ZM16.2789 17.9445C16.418 17.842 16.4316 17.6 16.4316 17.6C16.4316 17.6 16.1032 17.7175 15.8084 17.688C15.8084 17.688 16.1397 18.0475 16.2789 17.9445Z" fill="#FDA181"/>
<path d="M16.4782 17.1599L16.3041 17.4019C16.2257 17.2629 16.1352 16.8594 16.1304 16.8374C16.142 16.8519 16.329 17.0886 16.4782 17.1599Z" fill="#F77556"/>
<path d="M16.4313 17.6001C16.4313 17.6001 16.4176 17.8421 16.2785 17.9446C16.1394 18.0476 15.8081 17.6881 15.8081 17.6881C16.1028 17.7176 16.4313 17.6001 16.4313 17.6001Z" fill="white"/>
<path d="M16.5334 16.0012C16.4868 15.995 16.4357 15.9977 16.381 16.0073C16.377 15.9933 16.3726 15.9792 16.3686 15.9651C16.367 15.9603 16.3658 15.955 16.3642 15.9501C16.3613 15.9409 16.3585 15.9321 16.3557 15.9233L16.3613 15.922C16.4261 15.9092 16.4868 15.9066 16.5431 15.9141C16.5648 15.9167 16.5809 15.9387 16.5781 15.9629C16.5756 15.9867 16.5555 16.0043 16.5334 16.0012Z" fill="black"/>
<path d="M16.3068 16.6949C16.2698 16.7037 16.2272 16.6483 16.2115 16.5708C16.1963 16.4934 16.214 16.4239 16.251 16.4151C16.2879 16.4058 16.3306 16.4617 16.3458 16.5387C16.3615 16.6161 16.3438 16.6861 16.3068 16.6949Z" fill="#231F20"/>
<path d="M16.3755 16.0083C16.2662 16.0298 16.1826 16.0769 16.1817 16.0773C16.1757 16.0804 16.1697 16.0822 16.1633 16.0822C16.1488 16.0822 16.1347 16.0734 16.1275 16.0584C16.1174 16.0369 16.1251 16.0105 16.1448 15.999C16.1488 15.9968 16.2372 15.9475 16.3558 15.9233C16.3587 15.9321 16.3615 15.9409 16.3643 15.9502C16.3659 15.955 16.3671 15.9603 16.3687 15.9651C16.3727 15.9792 16.3772 15.9933 16.3812 16.0074C16.3792 16.0074 16.3776 16.0078 16.3755 16.0083Z" fill="black"/>
<path d="M16.0327 18.3588L16.0938 18.6228C15.6985 18.5762 15.52 18.3091 15.52 18.3091C15.8115 18.4402 16.0327 18.3588 16.0327 18.3588Z" fill="#F77556"/>
<path d="M15.9222 19.6241L15.5334 20.2986L15.141 19.6245L15.1406 19.6241L15.0095 19.3993V19.3988L15.1683 19.3711L15.9222 19.6241Z" fill="#A9D9FF"/>
<path d="M15.7448 16.5558C15.7818 16.547 15.8245 16.6025 15.8397 16.6799C15.8554 16.7569 15.8377 16.8269 15.8007 16.8357C15.7637 16.8445 15.7211 16.7891 15.7054 16.7116C15.6902 16.6346 15.7079 16.5646 15.7448 16.5558Z" fill="#231F20"/>
<path d="M15.56 20.68L15.1406 19.6245L15.533 20.2985L15.9218 19.624L16.0807 19.6795L15.56 20.68Z" fill="#295FC5"/>
<path d="M15.6933 16.1853C15.6322 16.1708 15.5353 16.1792 15.4919 16.1858C15.4794 16.1888 15.4661 16.1928 15.4517 16.1972C15.4633 16.1792 15.4742 16.1607 15.485 16.1422H15.4854C15.4943 16.1268 15.5031 16.111 15.5116 16.0947C15.5578 16.0894 15.6443 16.0837 15.7102 16.0991C15.7319 16.1044 15.7456 16.1277 15.7412 16.1514C15.7363 16.1752 15.715 16.1902 15.6933 16.1853Z" fill="black"/>
<path d="M15.4515 16.1972C15.3598 16.225 15.236 16.2734 15.197 16.3178C15.1933 16.3222 15.1888 16.3256 15.1838 16.328C15.1789 16.3303 15.1735 16.3315 15.168 16.3314C15.158 16.3314 15.1479 16.3275 15.1403 16.3191C15.1365 16.3151 15.1334 16.3104 15.1313 16.3051C15.1292 16.2998 15.1281 16.2941 15.1279 16.2884C15.1278 16.2826 15.1288 16.2769 15.1307 16.2715C15.1326 16.2661 15.1354 16.2612 15.1391 16.2571C15.2151 16.1691 15.4491 16.1062 15.4756 16.0996L15.4817 16.0982C15.4865 16.0978 15.4969 16.096 15.5114 16.0947C15.503 16.111 15.4941 16.1268 15.4853 16.1422H15.4849C15.474 16.1607 15.4632 16.1792 15.4515 16.1972Z" fill="black"/>
<path d="M14.2453 25.8941C14.2473 25.8061 14.0953 25.4057 14.0953 25.4057L14.1882 25.3577C14.1882 25.3577 14.7454 24.0571 14.6851 23.7051C14.6578 23.5445 14.1966 22.3107 13.9514 21.6608C13.8613 21.4228 13.8006 21.2631 13.8006 21.2631L13.7684 21.256L13.5316 22.5245L13.1673 23.2761L13.9678 24.9089C13.5043 25.0347 13.2015 25.2667 13.0596 25.3965C12.6848 24.7325 11.9985 23.5071 11.9913 23.4191C11.9812 23.2981 13.3583 19.8001 13.4086 19.7341C13.4202 19.7187 13.5223 19.6905 13.6719 19.6571C14.043 19.5731 14.706 19.4529 15.0088 19.3988V19.3993L15.1399 19.6241L15.1403 19.6245L15.5596 20.6801L16.0803 19.6795L16.7626 20.1521V19.9176L16.535 19.0605C16.7727 19.0363 17.0867 19.0063 17.3006 18.994C17.4296 18.987 17.5221 18.9861 17.5398 18.9971C17.6102 19.0411 19.3491 21.0211 19.4697 21.0101C19.5554 21.0022 20.6225 20.2801 21.2352 19.8613C21.2352 19.8613 21.8982 20.3017 22.201 20.6414C21.5372 21.2195 20.0202 22.3459 19.5843 22.5607C18.9201 22.3275 18.2796 21.4439 17.8868 20.802C18.0098 21.1359 18.1329 21.5082 18.1228 21.6371C18.1184 21.6939 18.0991 21.7801 18.0718 21.8795C17.9781 22.2205 17.7911 22.7151 17.7911 22.7151C17.7911 22.7151 18.7561 24.6401 19.0074 25.9601C19.0074 25.9601 18.9471 26.1141 17.4695 26.5101C17.299 26.5559 17.1241 26.5924 16.9484 26.621C15.601 26.8441 14.1954 26.6215 14.1954 26.6215C14.2244 26.2897 14.2441 25.939 14.2453 25.8941Z" fill="#3E89FC"/>
<path d="M14.5751 17.3692C14.555 17.7432 15.0576 17.6662 15.0576 17.6662C15.0576 17.6662 15.4898 18.5242 15.1682 19.3712L15.0094 19.3989C14.7066 19.453 14.0436 19.5731 13.6725 19.6572V19.6567C13.6713 19.6567 13.3086 19.6563 13.2584 19.0302C13.2081 18.4032 13.9318 18.0842 14.0022 17.6992C14.0725 17.3142 13.6102 16.9952 13.6906 16.3792C13.771 15.7632 14.2233 14.9822 15.52 14.7512C16.8167 14.5202 17.0028 15.7724 16.5179 16.4663C16.4709 16.3061 16.4238 16.1491 16.3812 16.0074C16.4359 15.9977 16.487 15.9951 16.5336 16.0012C16.5388 16.0019 16.5441 16.0015 16.5492 16C16.5543 15.9984 16.5591 15.9958 16.5632 15.9922C16.5674 15.9887 16.5708 15.9843 16.5734 15.9792C16.576 15.9742 16.5776 15.9687 16.5782 15.9629C16.5789 15.9572 16.5785 15.9514 16.5771 15.9458C16.5757 15.9403 16.5733 15.9351 16.57 15.9306C16.5668 15.926 16.5627 15.9222 16.5582 15.9194C16.5536 15.9166 16.5485 15.9148 16.5433 15.9141C16.487 15.9066 16.4263 15.9093 16.3615 15.922L16.3559 15.9233C16.1573 15.3117 15.6105 15.3012 15.6105 15.3012C15.6985 15.5942 15.6318 15.867 15.5116 16.0949C15.4971 16.0963 15.4866 16.098 15.4818 16.0985L15.4758 16.0998C15.4492 16.1064 15.2152 16.1693 15.1392 16.2573C15.124 16.2749 15.1244 16.3026 15.1404 16.3193C15.1481 16.3277 15.1581 16.3317 15.1682 16.3317C15.1786 16.3317 15.1895 16.3273 15.1971 16.318C15.2361 16.2736 15.36 16.2252 15.4516 16.1975C15.2389 16.5358 14.931 16.7532 14.931 16.7532L14.9169 17.0392C14.9169 17.0392 14.5952 16.9952 14.5751 17.3692Z" fill="#1E1950"/>
<path d="M13.9678 24.9089L14.1882 25.3577L14.0953 25.4057L13.4162 25.7564L13.298 25.8171C13.298 25.8171 13.2011 25.6468 13.0596 25.3965C13.2015 25.2667 13.5043 25.0348 13.9678 24.9089Z" fill="#A9D9FF"/>
<path d="M14.0959 25.4058C14.0959 25.4058 14.2479 25.8062 14.2459 25.8942C14.2447 25.939 14.225 26.2897 14.1961 26.6215C14.1683 26.9405 14.1321 27.2414 14.0959 27.2362C14.0682 27.2322 13.9986 27.186 13.9158 27.1099C13.7783 26.9827 13.605 26.7724 13.5298 26.5322C13.4092 26.1472 13.4168 25.7564 13.4168 25.7564L14.0959 25.4058Z" fill="#FDA181"/>
<path d="M13.7511 33.7263C13.7812 33.0993 13.9002 27.1927 13.9159 27.11C13.9988 27.1861 14.0683 27.2323 14.0961 27.2363C14.1322 27.2415 14.1684 26.9406 14.1962 26.6216C14.1962 26.6216 15.6018 26.8442 16.9491 26.6211V26.6216C16.9491 26.6216 16.7935 27.2873 16.5772 28.2082C16.1124 30.1834 15.3682 33.3316 15.2789 33.5943C15.2789 33.5943 15.2086 35.3842 14.3341 37.6832C14.3341 37.6832 14.3019 37.6947 14.2436 37.7083C14.0651 37.7505 13.6409 37.8156 13.1391 37.6497C13.0828 37.6308 13.0253 37.6093 12.967 37.5842C12.967 37.5842 13.7209 34.3533 13.7511 33.7263Z" fill="#295FC5"/>
<path d="M13.139 37.6494C13.6408 37.8153 14.065 37.7502 14.2435 37.7079L14.133 38.9289L11.4089 38.9839C11.4089 38.9839 11.4089 38.6209 11.4893 38.4449C11.5698 38.2689 12.967 37.9939 12.967 37.9939L13.139 37.6494Z" fill="#1E1950"/>
<path d="M13.8012 21.2629C13.8012 21.2629 13.8619 21.4226 13.952 21.6607L13.9512 21.6611L13.5322 22.5244L13.769 21.2559L13.8012 21.2629Z" fill="#295FC5"/>
<path d="M26.6569 10.7505C26.6175 10.3393 26.2877 9.68854 25.9869 9.45974C25.9017 9.39489 25.6173 9.24423 25.5098 9.34847C25.3337 9.51923 25.5946 9.8139 25.692 9.92918C25.8545 10.1216 26.0337 10.3177 26.1417 10.5437C26.222 10.7115 26.2511 10.9337 26.3554 11.0805C26.6481 11.4919 26.7981 10.9716 26.6301 10.6625M26.5497 11.8945C26.5124 11.9956 26.401 12.3891 26.442 12.5105C26.5046 12.6961 26.6963 12.7457 26.8137 12.5692C26.9991 12.2903 26.6048 11.6809 26.4961 12.0412" fill="white"/>
</svg>
